<svg xmlns="http://www.w3.org/2000/svg" viewBox="0 0 276.17 128.5"><defs><style>.cls-1{fill:#fff;}</style></defs><title>fifthstrategy_fulllogowhite_TGL</title><g id="Layer_2" data-name="Layer 2"><g id="Layer_1-2" data-name="Layer 1"><rect class="cls-1" width="63.54" height="22.07"/><polygon class="cls-1" points="63.54 55.95 20.96 55.95 21.04 73.41 0 73.41 0 55.95 0 33.87 63.54 33.87 63.54 55.95"/><polygon class="cls-1" points="0 90.87 42.58 90.87 42.5 73.41 63.54 73.41 63.54 90.87 63.54 112.94 0 112.94 0 90.87"/><path class="cls-1" d="M83.6,70.15V36.38h24.3v6.13H90v9.23h17v5.9H90V70.15Z"/><path class="cls-1" d="M118.29,39.62c0,4.59-7,4.59-7,0S118.29,35,118.29,39.62Zm-6.42,6.61V70.15h5.89V46.23Z"/><path class="cls-1" d="M125,70.15V51.84h-4.45V46.67H125v-1.6c0-6.37,4.3-9.32,9.08-9.32a11.51,11.51,0,0,1,6.18,1.93l-2.17,4.4a6.61,6.61,0,0,0-3.62-1.26c-2,0-3.58,1.36-3.58,4.25v1.6h7v5.17h-7V70.15Z"/><path class="cls-1" d="M150.85,39.62v6.76h6.57v5.07h-6.61V61.74c0,2.27,1.25,3.38,3.09,3.38a6.79,6.79,0,0,0,2.85-.72l1.64,5a13.12,13.12,0,0,1-4.88,1c-5.17.19-8.55-2.76-8.55-8.7V51.45h-4.44V46.38H145V40.24Z"/><path class="cls-1" d="M167.71,36.33V49.57A8.8,8.8,0,0,1,175.15,46c6.77,0,9.76,4.59,9.76,11.6V70.15H179V57.64c0-4.35-2.27-6.19-5.41-6.19-3.48,0-5.9,2.95-5.9,6.52V70.15h-5.89V36.33Z"/><path class="cls-1" d="M106.26,85.65c-2.46-4-6.42-4.54-10.24-4.59s-10.24,1.45-10.24,6.86c0,4.3,4.64,5.31,10.34,6.38,6.52,1.25,13.28,2.41,13.28,9.71-.05,7.63-7.73,9.47-13.38,9.47-5.27,0-11.26-2.18-13.86-7.35L84.47,105c2.08,4.11,7.4,6.14,11.55,6.14S106.79,110,106.79,104c0-5.07-5.55-6.18-11.11-7.25C89.5,95.51,83.17,94.25,83.17,88,83,80.87,90.46,78.64,96,78.64c4.83,0,9,.78,12.37,5.75Z"/><path class="cls-1" d="M120.46,81.88v7.2h8.12v2h-8.12V105.6c0,3.24.68,5.51,4.4,5.51a8.82,8.82,0,0,0,3.67-1l.82,1.94a10.44,10.44,0,0,1-4.49,1.2c-5.07,0-6.71-3-6.71-7.68V91.06h-5.08v-2h5.08v-7Z"/><path class="cls-1" d="M136.26,89.08l.1,4.25c1.5-3.23,4.88-4.49,7.92-4.49a9.25,9.25,0,0,1,5.12,1.4l-1.06,1.93a7.72,7.72,0,0,0-4.06-1.11,7.92,7.92,0,0,0-7.87,8v13.91H134V89.08Z"/><path class="cls-1" d="M175.93,89.08v23.86h-2.37v-5.07a11.17,11.17,0,0,1-9.76,5.46,12.27,12.27,0,0,1,0-24.54,10.84,10.84,0,0,1,9.76,5.51V89.08ZM154,101a9.59,9.59,0,0,0,9.76,10c13.28,0,13.28-20,0-20A9.54,9.54,0,0,0,154,101Z"/><path class="cls-1" d="M186.8,81.88v7.2h8.11v2H186.8V105.6c0,3.24.67,5.51,4.39,5.51a8.82,8.82,0,0,0,3.67-1l.83,1.94a10.51,10.51,0,0,1-4.5,1.2c-5.07,0-6.71-3-6.71-7.68V91.06h-5.07v-2h5.07v-7Z"/><path class="cls-1" d="M199,101a12,12,0,0,1,12.13-12.32c6.71,0,12.7,4.11,11.78,13.43H201.44a9.38,9.38,0,0,0,9.71,8.84c3.14,0,6.81-1.25,8.59-3.62l1.7,1.35c-2.32,3-6.48,4.59-10.29,4.59C204.43,113.28,199,108.6,199,101Zm21.79-1c-.05-5.9-3.92-9.18-9.66-9.18-4.93,0-9.18,3.33-9.71,9.18Z"/><path class="cls-1" d="M248.25,88.11l1.54,1.36-2.31,2.7A11.76,11.76,0,0,1,244,110.43c4.2,1.5,6.52,4.45,6.52,8.55,0,6.43-5,9.52-11.35,9.52S227.86,125,227.86,119h2.37c0,4.88,4.15,7.2,8.94,7.2s9-2.12,9-7.2-4.59-7.15-9-7.15c-6.91,0-11.21-5.17-11.21-11.54,0-7.44,5-11.65,11.21-11.65a12.17,12.17,0,0,1,6.76,2.18Zm-17.92,12.18c0,4.93,3.38,9.18,8.84,9.18a9.16,9.16,0,0,0,8.93-9.18c0-6-4-9.28-8.93-9.28S230.33,94.06,230.33,100.29Z"/><path class="cls-1" d="M276.17,89.08,261.63,122.9h-2.51l4.4-10.25L254,89.08h2.56l5.56,14.11,2.8,6.9,2.75-7,6-14.06Z"/></g></g></svg>